<svg width="32" height="32" viewBox="0 0 32 32" fill="none" xmlns="http://www.w3.org/2000/svg">
<rect width="32" height="32" rx="8" fill="#EAF5FF"/>
<mask id="mask0_3613_57093" style="mask-type:alpha" maskUnits="userSpaceOnUse" x="4" y="4" width="24" height="24">
<rect x="4" y="4" width="24" height="24" fill="#D9D9D9"/>
</mask>
<g mask="url(#mask0_3613_57093)">
<path d="M5 21.2C5 20.6333 5.14583 20.1125 5.4375 19.6375C5.72917 19.1625 6.11667 18.8 6.6 18.55C7.63333 18.0333 8.68333 17.6458 9.75 17.3875C10.8167 17.1292 11.9 17 13 17C14.1 17 15.1833 17.1292 16.25 17.3875C17.3167 17.6458 18.3667 18.0333 19.4 18.55C19.8833 18.8 20.2708 19.1625 20.5625 19.6375C20.8542 20.1125 21 20.6333 21 21.2V22C21 22.55 20.8042 23.0208 20.4125 23.4125C20.0208 23.8042 19.55 24 19 24H7C6.45 24 5.97917 23.8042 5.5875 23.4125C5.19583 23.0208 5 22.55 5 22V21.2ZM22.45 24C22.6333 23.7 22.7708 23.3792 22.8625 23.0375C22.9542 22.6958 23 22.35 23 22V21C23 20.2667 22.7958 19.5625 22.3875 18.8875C21.9792 18.2125 21.4 17.6333 20.65 17.15C21.5 17.25 22.3 17.4208 23.05 17.6625C23.8 17.9042 24.5 18.2 25.15 18.55C25.75 18.8833 26.2083 19.2542 26.525 19.6625C26.8417 20.0708 27 20.5167 27 21V22C27 22.55 26.8042 23.0208 26.4125 23.4125C26.0208 23.8042 25.55 24 25 24H22.45ZM13 16C11.9 16 10.9583 15.6083 10.175 14.825C9.39167 14.0417 9 13.1 9 12C9 10.9 9.39167 9.95833 10.175 9.175C10.9583 8.39167 11.9 8 13 8C14.1 8 15.0417 8.39167 15.825 9.175C16.6083 9.95833 17 10.9 17 12C17 13.1 16.6083 14.0417 15.825 14.825C15.0417 15.6083 14.1 16 13 16ZM23 12C23 13.1 22.6083 14.0417 21.825 14.825C21.0417 15.6083 20.1 16 19 16C18.8167 16 18.5833 15.9792 18.3 15.9375C18.0167 15.8958 17.7833 15.85 17.6 15.8C18.05 15.2667 18.3958 14.675 18.6375 14.025C18.8792 13.375 19 12.7 19 12C19 11.3 18.8792 10.625 18.6375 9.975C18.3958 9.325 18.05 8.73333 17.6 8.2C17.8333 8.11667 18.0667 8.0625 18.3 8.0375C18.5333 8.0125 18.7667 8 19 8C20.1 8 21.0417 8.39167 21.825 9.175C22.6083 9.95833 23 10.9 23 12Z" fill="#0085FF"/>
</g>
</svg>
